# xmcd CD database file
#
# Track frame offsets:
#	150
#	22227
#	48348
#	70193
#	88690
#	112575
#	125790
#	144766
#	168367
#	184125
#	197898
#	215341
#
# Disc length: 3058 seconds
#
# Revision: 0
# Processed by: cddbd v1.4PL0 Copyright (c) Steve Scherf et al.
# Submitted via: CDex 1.51
#
DISCID=a80bf00c
DTITLE=Vladimir Shafranov - Russian Lullaby
DYEAR=2003
DGENRE=Jazz
TTITLE0=Este Seu Olhar (These Eyes of Yours)
TTITLE1=Russian Lullaby
TTITLE2=Cape Verdean Blues
TTITLE3=Spartacus Love Theme
TTITLE4=If I Should Lose You
TTITLE5=Celia
TTITLE6=Slow Boat to China
TTITLE7=Nocturne (Chopin)
TTITLE8=Our Delight
TTITLE9=Have You Met Miss Jones
TTITLE10=There Goes My Heart
TTITLE11=Lazy Bird
EXTD=YEAR: 2003
EXTT0=
EXTT1=
EXTT2=
EXTT3=
EXTT4=
EXTT5=
EXTT6=
EXTT7=
EXTT8=
EXTT9=
EXTT10=
EXTT11=
PLAYORDER=
